<?xml version="1.0" encoding="UTF-8"?>
<svg width="24px" height="23px" viewBox="0 0 24 23" version="1.1" xmlns="http://www.w3.org/2000/svg" xmlns:xlink="http://www.w3.org/1999/xlink">
    <title>43105BE7-419C-4AE8-803C-AF1BCECBFA68@2x</title>
    <defs>
        <path d="M16.3515625,23.3566667 C15.7828097,23.3566667 15.2953145,23.1373574 14.8890625,22.6987324 L10.928125,18.6315023 C10.6437486,18.3125023 10.5015625,17.9436641 10.5015625,17.5249765 C10.5015625,17.106289 10.6437486,16.7374507 10.928125,16.4184507 L14.8890625,12.3512207 C15.3359397,11.9524706 15.8234349,11.7530986 16.3515625,11.7530986 L16.4125,11.7530986 C17.021878,11.7530986 17.5093732,11.9724078 17.875,12.4110329 C18.3218772,12.8496579 18.5250002,13.348088 18.484375,13.906338 C18.484375,14.4645881 18.3015625,14.9430809 17.9359375,15.341831 L22.6890625,15.341831 C23.2578153,15.341831 23.7453105,15.541203 24.1515625,15.9399531 C24.5171893,16.3387031 24.7,16.8570704 24.7,17.4950704 C24.7,18.1330705 24.5171893,18.6514378 24.1515625,19.0501878 C23.7453105,19.4489378 23.2578153,19.6682471 22.6890625,19.7081221 L17.9359375,19.7081221 C18.3015625,20.1068721 18.484375,20.585365 18.484375,21.143615 C18.5250002,21.7018651 18.3218772,22.2002951 17.875,22.6389202 C17.5093732,23.0775452 17.021878,23.3167917 16.4125,23.3566667 L16.3515625,23.3566667 Z M15.8640625,21.8015493 C15.9859381,21.9211743 16.1585926,21.9809859 16.3820312,21.9809859 C16.6054699,21.9809859 16.7984367,21.9012371 16.9609375,21.7417371 C17.3265643,21.3429871 17.306252,20.944243 16.9,20.545493 L15.925,19.4688732 C15.721874,19.2694982 15.6812494,19.0402204 15.803125,18.7810329 C15.9250006,18.5218453 16.1281236,18.3922535 16.4125,18.3922535 L22.628125,18.3922535 C22.831251,18.3922535 23.0140617,18.3125047 23.1765625,18.1530047 C23.3390633,17.9935047 23.4203125,17.7941327 23.4203125,17.5548826 L23.4203125,17.4950704 C23.4203125,17.2558204 23.3390633,17.0564484 23.1765625,16.8969484 C23.0140617,16.7374483 22.831251,16.6377623 22.628125,16.5978873 L16.4125,16.5978873 C16.1281236,16.5978873 15.9250006,16.4782641 15.803125,16.2390141 C15.6812494,15.9997641 15.721874,15.7605176 15.925,15.5212676 L16.9,14.5044601 C17.0625008,14.3449601 17.14375,14.1455881 17.14375,13.906338 C17.14375,13.667088 17.0625008,13.467716 16.9,13.308216 C16.7781244,13.1487159 16.6054699,13.0689671 16.3820312,13.0689671 C16.1585926,13.0689671 15.9859381,13.1287787 15.8640625,13.2484038 L11.903125,17.3156338 C11.7812494,17.4352588 11.7812494,17.5748192 11.903125,17.7343192 L15.8640625,21.8015493 Z M9.5875,13.6670892 C8.97812195,13.6272142 8.49062683,13.407905 8.125,13.0091549 C7.67812277,12.5705299 7.4749998,12.0521626 7.515625,11.4540376 C7.515625,10.9356625 7.71874797,10.4771068 8.125,10.0783568 L3.3109375,10.0783568 C2.74218466,10.0384818 2.25468953,9.79923537 1.8484375,9.36061033 C1.48281067,9.00173529 1.3,8.50330522 1.3,7.86530516 C1.3,7.2273051 1.48281067,6.70893783 1.8484375,6.31018779 C2.25468953,5.87156275 2.76249695,5.65225352 3.371875,5.65225352 L8.125,5.65225352 C7.71874797,5.25350348 7.515625,4.79494782 7.515625,4.27657277 C7.4749998,3.67844771 7.67812277,3.16008044 8.125,2.7214554 C8.49062683,2.32270536 8.97812195,2.12333333 9.5875,2.12333333 L9.6484375,2.12333333 C10.1765651,2.12333333 10.6640603,2.30276816 11.1109375,2.66164319 L15.071875,6.78868545 C15.3562514,7.06781047 15.4984375,7.42668012 15.4984375,7.86530516 C15.4984375,8.30393021 15.3562514,8.68273706 15.071875,9.00173709 L11.1109375,13.0689671 C10.7046855,13.4677172 10.2171903,13.6670892 9.6484375,13.6670892 L9.5875,13.6670892 Z M9.0390625,12.1119718 C9.20156331,12.2714718 9.39453013,12.3512207 9.61796875,12.3512207 C9.84140737,12.3512207 10.0140619,12.291409 10.1359375,12.171784 L14.096875,8.04474178 C14.2187506,7.92511677 14.2187506,7.80549356 14.096875,7.68586854 L10.1359375,3.6186385 C10.0140619,3.45913848 9.84140737,3.37938967 9.61796875,3.37938967 C9.39453013,3.37938967 9.22187561,3.45913848 9.1,3.6186385 C8.93749919,3.81801352 8.85625,4.02735415 8.85625,4.24666667 C8.85625,4.46597919 8.93749919,4.65538261 9.1,4.81488263 L10.075,5.89150235 C10.278126,6.13075237 10.3187506,6.3699988 10.196875,6.60924883 C10.0749994,6.84849885 9.87187642,6.96812207 9.5875,6.96812207 L3.371875,6.96812207 C3.16874898,7.00799707 2.98593831,7.10768308 2.8234375,7.2671831 C2.66093669,7.42668311 2.5796875,7.62605514 2.5796875,7.86530516 L2.5796875,7.92511737 C2.5796875,8.12449239 2.66093669,8.31389582 2.8234375,8.49333333 C2.98593831,8.67277085 3.16874898,8.76248826 3.371875,8.76248826 L9.5875,8.76248826 C9.87187642,8.76248826 10.0749994,8.89208008 10.196875,9.15126761 C10.3187506,9.41045513 10.278126,9.63973296 10.075,9.83910798 L9.1,10.9157277 C8.69374797,11.3144777 8.67343567,11.7132218 9.0390625,12.1119718 Z" id="path-1"></path>
    </defs>
    <g id="Comparison-conv" stroke="none" stroke-width="1" fill="none" fill-rule="evenodd">
        <g id="02_02_-Mobile_Sticky-compare-bar-_-mini" transform="translate(-268.000000, -589.000000)">
            <g id="Group" transform="translate(255.000000, 458.000000)">
                <g id="Sticky_components/Comparison/Mobile" transform="translate(0.000000, 118.000000)">
                    <g id="Icon/Action/action_delete" transform="translate(12.000000, 11.760000)">
                        <mask id="mask-2" fill="white">
                            <use xlink:href="#path-1"></use>
                        </mask>
                        <use id="icon" fill="#333333" fill-rule="nonzero" xlink:href="#path-1"></use>
                    </g>
                </g>
            </g>
        </g>
    </g>
</svg>