<?xml version="1.0" encoding="UTF-8"?>
<svg width="18px" height="18px" viewBox="0 0 18 18" version="1.1" xmlns="http://www.w3.org/2000/svg" xmlns:xlink="http://www.w3.org/1999/xlink">
    <title>Minimize Copy</title>
    <defs>
        <path d="M17.7493917,1.66666667 C18.0656934,1.66666667 18.3333333,1.90997567 18.3333333,2.25060827 L18.3333333,17.7250608 C18.3333333,18.0656934 18.0656934,18.3090024 17.7493917,18.3090024 L12.7615572,18.3090024 C12.4452555,18.3090024 12.1776156,18.0656934 12.1776156,17.7250608 C12.1776156,17.4087591 12.4452555,17.1411192 12.7615572,17.1411192 L17.1654501,17.1411192 L17.1654501,2.83454988 L2.85888078,2.83454988 L2.85888078,7.21411192 C2.85888078,7.53041363 2.59124088,7.79805353 2.27493917,7.79805353 C1.93430657,7.79805353 1.66666667,7.53041363 1.66666667,7.21411192 L1.66666667,2.25060827 C1.66666667,1.90997567 1.93430657,1.66666667 2.27493917,1.66666667 L17.7493917,1.66666667 Z M15.2676399,5.55961071 L12.4209246,8.40632603 C12.2992701,8.52798054 12.1532847,8.57664234 12.0072993,8.57664234 C11.8613139,8.57664234 11.6909976,8.52798054 11.593674,8.40632603 C11.350365,8.18734793 11.350365,7.79805353 11.593674,7.57907543 L14.4403893,4.7323601 L12.5425791,4.7323601 C12.2019465,4.7323601 11.9343066,4.48905109 11.9343066,4.14841849 C11.9343066,3.83211679 12.2019465,3.56447689 12.5425791,3.56447689 L15.8515815,3.56447689 C15.973236,3.56447689 16.0948905,3.61313869 16.1922141,3.68613139 C16.216545,3.68613139 16.2408759,3.71046229 16.2652068,3.73479319 C16.2895377,3.75912409 16.3138686,3.78345499 16.3138686,3.80778589 C16.3868613,3.90510949 16.4355231,4.02676399 16.4355231,4.14841849 L16.4355231,7.38442822 C16.4355231,7.72506083 16.1678832,7.96836983 15.8515815,7.96836983 C15.5109489,7.96836983 15.2676399,7.72506083 15.2676399,7.38442822 L15.2676399,5.55961071 Z M10.4257908,8.96593674 C10.7664234,8.96593674 11.0097324,9.23357664 11.0097324,9.54987835 L11.0097324,17.7250608 C11.0097324,18.0656934 10.7664234,18.3090024 10.4257908,18.3090024 L2.27493917,18.3090024 C1.93430657,18.3090024 1.66666667,18.0656934 1.66666667,17.7250608 L1.66666667,9.54987835 C1.66666667,9.23357664 1.93430657,8.96593674 2.27493917,8.96593674 L10.4257908,8.96593674 Z M9.84184915,17.1411192 L9.84184915,10.13382 L2.85888078,10.13382 L2.85888078,17.1411192 L9.84184915,17.1411192 Z" id="path-1"></path>
    </defs>
    <g id="Comparison" stroke="none" stroke-width="1" fill="none" fill-rule="evenodd">
        <g id="Group" transform="translate(-1.000000, -1.000000)">
            <g id="Delete-icon" transform="translate(10.000000, 10.000000) scale(-1, 1) translate(-10.000000, -10.000000) ">
                <mask id="mask-2" fill="white">
                    <use xlink:href="#path-1"></use>
                </mask>
                <use id="icon" fill="#333333" fill-rule="nonzero" xlink:href="#path-1"></use>
            </g>
        </g>
    </g>
</svg>