<?xml version="1.0" encoding="UTF-8"?>
<svg width="18px" height="18px" viewBox="0 0 18 18" version="1.1" xmlns="http://www.w3.org/2000/svg" xmlns:xlink="http://www.w3.org/1999/xlink">
    <title>Minimize Copy</title>
    <defs>
        <path d="M17.7493917,1.66666667 C18.0656934,1.66666667 18.3333333,1.90997567 18.3333333,2.25060827 L18.3333333,17.7250608 C18.3333333,18.0656934 18.0656934,18.3090024 17.7493917,18.3090024 L12.7615572,18.3090024 C12.4452555,18.3090024 12.1776156,18.0656934 12.1776156,17.7250608 C12.1776156,17.4087591 12.4452555,17.1411192 12.7615572,17.1411192 L17.1654501,17.1411192 L17.1654501,2.83454988 L2.85888078,2.83454988 L2.85888078,7.21411192 C2.85888078,7.53041363 2.59124088,7.79805353 2.27493917,7.79805353 C1.93430657,7.79805353 1.66666667,7.53041363 1.66666667,7.21411192 L1.66666667,2.25060827 C1.66666667,1.90997567 1.93430657,1.66666667 2.27493917,1.66666667 L17.7493917,1.66666667 Z M12.5790754,6.58150852 L15.4257908,3.73479319 C15.5474453,3.61313869 15.6934307,3.56447689 15.8394161,3.56447689 C15.9854015,3.56447689 16.1557178,3.61313869 16.2530414,3.73479319 C16.4963504,3.95377129 16.4963504,4.34306569 16.2530414,4.5620438 L13.406326,7.40875912 L15.3041363,7.40875912 C15.6447689,7.40875912 15.9124088,7.65206813 15.9124088,7.99270073 C15.9124088,8.30900243 15.6447689,8.57664234 15.3041363,8.57664234 L11.9951338,8.57664234 C11.8734793,8.57664234 11.7518248,8.52798054 11.6545012,8.45498783 C11.6301703,8.45498783 11.6058394,8.43065693 11.5815085,8.40632603 C11.5571776,8.38199513 11.5328467,8.35766423 11.5328467,8.33333333 C11.459854,8.23600973 11.4111922,8.11435523 11.4111922,7.99270073 L11.4111922,4.756691 C11.4111922,4.41605839 11.6788321,4.17274939 11.9951338,4.17274939 C12.3357664,4.17274939 12.5790754,4.41605839 12.5790754,4.756691 L12.5790754,6.58150852 Z M10.4257908,8.96593674 C10.7664234,8.96593674 11.0097324,9.23357664 11.0097324,9.54987835 L11.0097324,17.7250608 C11.0097324,18.0656934 10.7664234,18.3090024 10.4257908,18.3090024 L2.27493917,18.3090024 C1.93430657,18.3090024 1.66666667,18.0656934 1.66666667,17.7250608 L1.66666667,9.54987835 C1.66666667,9.23357664 1.93430657,8.96593674 2.27493917,8.96593674 L10.4257908,8.96593674 Z M9.84184915,17.1411192 L9.84184915,10.13382 L2.85888078,10.13382 L2.85888078,17.1411192 L9.84184915,17.1411192 Z" id="path-1"></path>
    </defs>
    <g id="Comparison" stroke="none" stroke-width="1" fill="none" fill-rule="evenodd">
        <g id="Group" transform="translate(-1.000000, -1.000000)">
            <g id="Delete-icon" transform="translate(10.000000, 10.000000) scale(-1, 1) translate(-10.000000, -10.000000) ">
                <mask id="mask-2" fill="white">
                    <use xlink:href="#path-1"></use>
                </mask>
                <use id="icon" fill="#333333" fill-rule="nonzero" xlink:href="#path-1"></use>
            </g>
        </g>
    </g>
</svg>