<?xml version="1.0" encoding="UTF-8"?>
<svg width="35px" height="35px" viewBox="0 0 35 35" version="1.1" xmlns="http://www.w3.org/2000/svg" xmlns:xlink="http://www.w3.org/1999/xlink">
    <!-- Generator: Sketch 63.1 (92452) - https://sketch.com -->
    <title>Group</title>
    <desc>Created with Sketch.</desc>
    <defs>
        <path d="M17.5,0 L17.8661211,0.003754202 C27.3617741,0.198655985 35,7.95767089 35,17.5 L35,17.5 L34.9962458,17.8661649 C34.801344,27.3629407 27.0423291,35.0011667 17.5,35.0011667 L17.5,35.0011667 L17.1338357,34.9974125 C7.63708861,34.8025105 0,27.043481 0,17.5 C0,7.83533333 7.83416667,0 17.5,0 L17.5,0 Z M17.5,1.16666667 L17.1352468,1.17065904 C8.2830291,1.36461821 1.16666667,8.60123423 1.16666667,17.5 C1.16666667,26.5195 8.47933333,33.8345 17.5,33.8345 L17.5,33.8345 L17.8647532,33.8305064 C26.7169709,33.636486 33.8333333,26.3976149 33.8333333,17.5 L33.8333333,17.5 L33.829341,17.1352468 C33.6353818,8.2830291 26.3987658,1.16666667 17.5,1.16666667 L17.5,1.16666667 Z" id="path-1"></path>
        <polygon id="path-3" points="0 0 13 0 13 17 0 17"></polygon>
    </defs>
    <g id="Login-Desktop" stroke="none" stroke-width="1" fill="none" fill-rule="evenodd">
        <g id="Social-icons-color" transform="translate(-6.000000, -6.000000)">
            <g id="Social-media-sprite" transform="translate(6.000000, 6.000000)">
                <g id="Group">
                    <g id="Group-15">
                        <g id="Fill-13-Clipped">
                            <mask id="mask-2" fill="white">
                                <use xlink:href="#path-1"></use>
                            </mask>
                            <g id="path-7"></g>
                            <polygon id="Fill-13" fill="#9FA0A4" fill-rule="nonzero" mask="url(#mask-2)" points="-5.83333333 40.8333333 40.8333333 40.8333333 40.8333333 -5.83333333 -5.83333333 -5.83333333"></polygon>
                        </g>
                    </g>
                    <g id="Group-3" transform="translate(11.000000, 9.000000)">
                        <g id="Fill-1-Clipped">
                            <mask id="mask-4" fill="white">
                                <use xlink:href="#path-3"></use>
                            </mask>
                            <g id="path-9"></g>
                            <path d="M10.8666924,9.86445734 C10.5923188,7.53662223 12.5958839,6.41852821 12.5958839,6.41852821 C12.5958839,6.41852821 11.7153362,4.86376293 9.45015909,4.83249512 C9.45015909,4.83249512 8.81739835,4.8033837 8.04957775,5.10743627 L6.7893736,5.55381132 C6.7893736,5.55381132 6.5681732,5.62065976 6.36398823,5.53440371 C6.36398823,5.53440371 5.3324287,5.18937952 5.1378149,5.10204527 C4.9283126,5.01039822 4.49973684,4.91336016 4.49973684,4.91336016 C2.92262058,4.65027921 1.64008369,5.71769781 1.64008369,5.71769781 C-0.0380615962,7.14092261 0.00128655056,9.27468161 0.00128655056,9.27468161 C-0.0380615962,11.6337845 0.838232266,13.4678038 0.838232266,13.4678038 C1.64221062,15.4786479 3.03109385,16.5633177 3.03109385,16.5633177 C3.96375127,17.4010796 5.12930719,16.7757232 5.12930719,16.7757232 C5.12930719,16.7757232 6.62666369,15.9929496 7.96237375,16.5719433 C7.96237375,16.5719433 8.77379635,16.9169675 9.02477372,16.9385315 C9.90532143,17.1207474 10.4104666,16.682998 10.4104666,16.682998 C10.9570868,16.409135 11.6855592,15.3438728 11.6855592,15.3438728 C12.6660725,14.0112169 13,12.7518786 13,12.7518786 C10.9677214,11.8062966 10.8666924,9.86445734 10.8666924,9.86445734 M10.0010331,-5.32907052e-15 C10.0010331,-5.32907052e-15 6.48841345,0.227500328 6.50005338,4.37533806 C6.50005338,4.37533806 9.93403494,4.59097818 10.0010331,-5.32907052e-15" id="Fill-1" fill="#000000" fill-rule="nonzero" mask="url(#mask-4)"></path>
                        </g>
                    </g>
                </g>
            </g>
        </g>
    </g>
</svg>