<?xml version="1.0" encoding="utf-8"?>
<!-- Generator: Adobe Illustrator 24.2.3, SVG Export Plug-In . SVG Version: 6.00 Build 0)  -->
<svg version="1.1" id="Layer_1" xmlns="http://www.w3.org/2000/svg" xmlns:xlink="http://www.w3.org/1999/xlink" x="0px" y="0px"
	 viewBox="0 0 1024 1024" style="enable-background:new 0 0 1024 1024;" xml:space="preserve">
<style type="text/css">
	.st0{fill:#3DCD58;}
</style>
<path class="st0" d="M272,626c10,0,20-9,21-20s-7-22-19-23c-57-6-101-54-102-111c-2-64,48-116,111-118h16c9,0,17-5,20-14
	c25-66,83-112,153-121c49-6,98,7,138,38c39,30,65,75,71,124c1,7,5,13,11,16s13,4,20,1c13-7,27-10,42-10c54,0,97,43,97,97
	s-43,97-97,97c-12,0-21,10-21,22s10,21,21,21c77,0,140-63,140-140s-63-140-140-140c-12,0-24,2-35,5c-13-51-41-95-83-127
	c-49-38-109-54-170-46c-80,10-148,61-181,134h-2c-87,3-156,75-154,162c2,78,62,144,140,152C270,625,271,626,272,626z M508,850
	c12,0,24-5,33-13l122-115c24-25,24-65-1-91c-24-22-61-24-86-4V457c-4-30-28-54-58-58c-18-2-35,2-50,13c-14,11-23,27-26,48v166
	c-26-20-62-18-87,5c-24,24-24,65,0,89v1l119,116C484,846,496,850,508,850z M385,690c-8-8-8-21,0-29c9-9,24-9,33,0l31,28
	c6,6,15,8,23,4c8-3,13-11,13-19l-1-212c1-6,5-12,10-16s12-6,18-5c11,2,20,10,21,19v215c0,8,5,16,13,20c8,3,17,1,23-4l31-29
	c9-8,24-8,32,0s8,21,1,29L512,806c-2,2-6,2-8,0L385,690z"/>
</svg>
