<?xml version="1.0" encoding="UTF-8"?>
<svg width="35px" height="35px" viewBox="0 0 35 35" version="1.1" xmlns="http://www.w3.org/2000/svg" xmlns:xlink="http://www.w3.org/1999/xlink">
    <!-- Generator: Sketch 63.1 (92452) - https://sketch.com -->
    <title>Group 19</title>
    <desc>Created with Sketch.</desc>
    <defs>
        <path d="M17.5,0 L17.8661211,0.003754202 C27.3617741,0.198655985 35,7.95767089 35,17.5 L35,17.5 L34.9962458,17.8661649 C34.801344,27.3629407 27.0423291,35.0011667 17.5,35.0011667 L17.5,35.0011667 L17.1338357,34.9974125 C7.63708861,34.8025105 0,27.043481 0,17.5 C0,7.83533333 7.83416667,0 17.5,0 L17.5,0 Z M17.5,1.16666667 L17.1352468,1.17065904 C8.2830291,1.36461821 1.16666667,8.60123423 1.16666667,17.5 C1.16666667,26.5195 8.47933333,33.8345 17.5,33.8345 L17.5,33.8345 L17.8647532,33.8305064 C26.7169709,33.636486 33.8333333,26.3976149 33.8333333,17.5 L33.8333333,17.5 L33.829341,17.1352468 C33.6353818,8.2830291 26.3987658,1.16666667 17.5,1.16666667 L17.5,1.16666667 Z" id="path-1"></path>
        <path d="M6.40716667,0.424666667 L9.57233333,0.436333333 L9.57233333,3.96433333 L7.27516667,3.96433333 L7.19815284,3.96693457 C6.83093111,3.99180963 6.3675,4.20334444 6.3675,4.9525 L6.3675,4.9525 L6.3675,7.091 L9.626,7.091 L9.2515,10.7251667 L6.3675,10.7251667 L6.3675,21.0093333 L2.094,21.0093333 L2.094,10.7251667 L0.0605,10.7251667 L0.0605,7.091 L2.094,7.091 L2.094,4.73783333 C2.094,3.05433333 2.892,0.424666667 6.40716667,0.424666667 L6.40716667,0.424666667 Z" id="path-3"></path>
    </defs>
    <g id="Login-Desktop" stroke="none" stroke-width="1" fill="none" fill-rule="evenodd">
        <g id="Desktop-new-brand-Email" transform="translate(-1022.000000, -559.000000)">
            <g id="Group-7" transform="translate(827.000000, 339.000000)">
                <g id="Group-10" transform="translate(145.000000, 220.000000)">
                    <g id="Group-2">
                        <g id="Group-19" transform="translate(50.000000, 0.000000)">
                            <g id="Group-15">
                                <mask id="mask-2" fill="white">
                                    <use xlink:href="#path-1"></use>
                                </mask>
                                <g id="Clip-14"></g>
                                <polygon id="Fill-13" fill="#9FA0A4" mask="url(#mask-2)" points="-5.83333333 40.8333333 40.8333333 40.8333333 40.8333333 -5.83333333 -5.83333333 -5.83333333"></polygon>
                            </g>
                            <g id="Group-18" transform="translate(12.666667, 7.000000)">
                                <mask id="mask-4" fill="white">
                                    <use xlink:href="#path-3"></use>
                                </mask>
                                <g id="Clip-17"></g>
                                <polygon id="Fill-16" fill="#3B5999" mask="url(#mask-4)" points="-5.77283333 26.8426667 15.4605 26.8426667 15.4605 -5.40983333 -5.77283333 -5.40983333"></polygon>
                            </g>
                        </g>
                    </g>
                </g>
            </g>
        </g>
    </g>
</svg>