<?xml version="1.0" encoding="UTF-8"?>
<svg width="35px" height="35px" viewBox="0 0 35 35" version="1.1" xmlns="http://www.w3.org/2000/svg" xmlns:xlink="http://www.w3.org/1999/xlink">
    <!-- Generator: Sketch 63.1 (92452) - https://sketch.com -->
    <title>Group 16</title>
    <desc>Created with Sketch.</desc>
    <defs>
        <path d="M17.5,0 L17.8661211,0.003754202 C27.3617741,0.198655985 35,7.95767089 35,17.5 L35,17.5 L34.9962458,17.8661649 C34.801344,27.3629407 27.0423291,35.0011667 17.5,35.0011667 L17.5,35.0011667 L17.1338357,34.9974125 C7.63708861,34.8025105 0,27.043481 0,17.5 C0,7.83533333 7.83416667,0 17.5,0 L17.5,0 Z M17.5,1.16666667 L17.1352468,1.17065904 C8.2830291,1.36461821 1.16666667,8.60123423 1.16666667,17.5 C1.16666667,26.5195 8.47933333,33.8345 17.5,33.8345 L17.5,33.8345 L17.8647532,33.8305064 C26.7169709,33.636486 33.8333333,26.3976149 33.8333333,17.5 L33.8333333,17.5 L33.829341,17.1352468 C33.6353818,8.2830291 26.3987658,1.16666667 17.5,1.16666667 L17.5,1.16666667 Z" id="path-1"></path>
        <polygon id="path-3" points="0.7585 0.0959 13.554 0.0959 13.554 12.9999 0.7585 12.9999"></polygon>
        <polygon id="path-5" points="0.0001 0.31 4.7141 0.31 4.7141 4.6688 0.0001 4.6688"></polygon>
    </defs>
    <g id="Login-Desktop" stroke="none" stroke-width="1" fill="none" fill-rule="evenodd">
        <g id="Desktop-new-brand-Email" transform="translate(-1072.000000, -559.000000)">
            <g id="Group-7" transform="translate(827.000000, 339.000000)">
                <g id="Group-10" transform="translate(145.000000, 220.000000)">
                    <g id="Group-2">
                        <g id="Group-16" transform="translate(100.000000, 0.000000)">
                            <g id="Group-Copy-4" opacity="0.698056176">
                                <g id="Group-15">
                                    <mask id="mask-2" fill="white">
                                        <use xlink:href="#path-1"></use>
                                    </mask>
                                    <g id="Clip-14"></g>
                                    <polygon id="Fill-13" fill="#626469" mask="url(#mask-2)" points="-5.83333333 40.8333333 40.8333333 40.8333333 40.8333333 -5.83333333 -5.83333333 -5.83333333"></polygon>
                                </g>
                            </g>
                            <g id="Group-12" transform="translate(8.000000, 7.000000)">
                                <g id="Group-9">
                                    <g id="Group-14" transform="translate(0.000000, 0.690200)">
                                        <g id="Group-3" transform="translate(6.000000, 6.000000)">
                                            <mask id="mask-4" fill="white">
                                                <use xlink:href="#path-3"></use>
                                            </mask>
                                            <g id="Clip-2"></g>
                                            <path d="M8.7275,0.0959 C6.5025,0.0959 5.5075,1.3159 4.9495,2.1759 L4.9495,2.2179 L4.9205,2.2179 C4.9315,2.2049 4.9425,2.1909 4.9495,2.1759 L4.9495,0.3919 L0.7585,0.3919 C0.8115,1.5739 0.7585,12.9999 0.7585,12.9999 L4.9495,12.9999 L4.9495,5.9579 C4.9495,5.5789 4.9765,5.2059 5.0865,4.9369 C5.3905,4.1849 6.0815,3.4029 7.2385,3.4029 C8.7555,3.4029 9.3625,4.5599 9.3625,6.2539 L9.3625,12.9999 L13.5545,12.9999 L13.5545,5.7699 C13.5545,1.8959 11.4845,0.0959 8.7275,0.0959" id="Fill-1" fill="#007BBB" mask="url(#mask-4)"></path>
                                        </g>
                                        <g id="Group-6">
                                            <mask id="mask-6" fill="white">
                                                <use xlink:href="#path-5"></use>
                                            </mask>
                                            <g id="Clip-5"></g>
                                            <path d="M2.3701,0.3098 C0.9371,0.3098 0.0001,1.2528 0.0001,2.4898 C0.0001,3.6998 0.9091,4.6688 2.3151,4.6688 L2.3431,4.6688 C3.8051,4.6688 4.7141,3.6998 4.7141,2.4898 C4.6871,1.2528 3.8051,0.3098 2.3701,0.3098" id="Fill-4" fill="#007BBB" mask="url(#mask-6)"></path>
                                        </g>
                                        <polygon id="Fill-7" fill="#007BBB" points="0.247 19 4.439 19 4.439 6.392 0.247 6.392"></polygon>
                                    </g>
                                </g>
                            </g>
                        </g>
                    </g>
                </g>
            </g>
        </g>
    </g>
</svg>