<?xml version="1.0" encoding="UTF-8"?>
<svg width="35px" height="35px" viewBox="0 0 35 35" version="1.1" xmlns="http://www.w3.org/2000/svg" xmlns:xlink="http://www.w3.org/1999/xlink">
    <!-- Generator: Sketch 63.1 (92452) - https://sketch.com -->
    <title>Group 13</title>
    <desc>Created with Sketch.</desc>
    <defs>
        <path d="M17.5,0 L17.8661211,0.003754202 C27.3617741,0.198655985 35,7.95767089 35,17.5 L35,17.5 L34.9962458,17.8661649 C34.801344,27.3629407 27.0423291,35.0011667 17.5,35.0011667 L17.5,35.0011667 L17.1338357,34.9974125 C7.63708861,34.8025105 0,27.043481 0,17.5 C0,7.83533333 7.83416667,0 17.5,0 L17.5,0 Z M17.5,1.16666667 L17.1352468,1.17065904 C8.2830291,1.36461821 1.16666667,8.60123423 1.16666667,17.5 C1.16666667,26.5195 8.47933333,33.8345 17.5,33.8345 L17.5,33.8345 L17.8647532,33.8305064 C26.7169709,33.636486 33.8333333,26.3976149 33.8333333,17.5 L33.8333333,17.5 L33.829341,17.1352468 C33.6353818,8.2830291 26.3987658,1.16666667 17.5,1.16666667 L17.5,1.16666667 Z" id="path-1"></path>
    </defs>
    <g id="Login-Desktop" stroke="none" stroke-width="1" fill="none" fill-rule="evenodd">
        <g id="Desktop-new-brand-Email" transform="translate(-1122.000000, -559.000000)">
            <g id="Group-7" transform="translate(827.000000, 339.000000)">
                <g id="Group-10" transform="translate(145.000000, 220.000000)">
                    <g id="Group-2">
                        <g id="Group-13" transform="translate(150.000000, 0.000000)">
                            <g id="Group-22">
                                <mask id="mask-2" fill="white">
                                    <use xlink:href="#path-1"></use>
                                </mask>
                                <g id="Clip-21"></g>
                                <polygon id="Fill-20" fill="#9FA0A4" mask="url(#mask-2)" points="-5.83333333 40.8333333 40.8333333 40.8333333 40.8333333 -5.83333333 -5.83333333 -5.83333333"></polygon>
                            </g>
                            <g id="Group-5" transform="translate(8.000000, 7.000000)">
                                <path d="M12.8529296,9.32555556 C14.668895,10.0166111 16.1474636,11.1677222 17.2882422,12.7796667 C18.4294141,14.3916111 19,16.1416111 19,18.0296667 L19,20.3785556 C19,20.7927222 18.790405,21 18.3708219,21 C17.9520252,21 17.7424302,20.7927222 17.7424302,20.3781667 L17.7424302,18.0292778 C17.7424302,16.8322778 17.4750295,15.6807778 16.9394416,14.5759444 C16.4034605,13.4703333 15.6464805,12.5265 14.668895,11.7432778 C13.6913095,10.9604444 12.5733386,10.4307778 11.316162,10.1546667 C11.316162,10.1083889 11.2925678,10.0854444 11.2465592,10.0854444 C11.1997641,10.0854444 11.1761699,10.0625 11.1761699,10.0166111 L11.106567,10.0166111 L11.0019662,9.91277778 C10.9779788,9.88944444 10.9669681,9.85522222 10.9669681,9.80933333 L10.8969721,9.80933333 L10.8969721,9.39477778 C10.8969721,9.3485 10.9091624,9.31427778 10.9315769,9.29094444 L10.9673614,9.25672222 L10.9673614,9.1875 L11.0369642,9.11827778 C11.0369642,9.07238889 11.0597719,9.04944444 11.106567,9.04944444 L11.1761699,8.98022222 C11.828549,8.65783333 12.3401494,8.1515 12.7133307,7.46044444 C13.0857255,6.76977778 13.2717263,6.05577778 13.2717263,5.31922222 C13.2717263,4.214 12.8879276,3.25811111 12.1199371,2.45233333 C11.35116,1.64655556 10.4545812,1.24327778 9.42980731,1.24327778 C8.73181282,1.24327778 8.07982698,1.42761111 7.47463626,1.79588889 C6.87416437,2.15911111 6.38065277,2.67127778 6.04246952,3.28144444 C5.69288242,3.90288889 5.51867873,4.58227778 5.51867873,5.31922222 C5.51867873,6.05577778 5.7164766,6.76977778 6.11207236,7.46044444 C6.50806134,8.1515 7.00904444,8.65822222 7.61423516,8.98022222 C7.84703107,9.07238889 7.96303578,9.25633333 7.96303578,9.53283333 C7.96303578,9.85561111 7.80062918,10.0625 7.47463626,10.1546667 C6.26346834,10.4307778 5.18088871,10.9491667 4.22650413,11.7090556 C3.28077074,12.4572778 2.52654345,13.4158889 2.0259536,14.5067222 C1.51395989,15.6119444 1.2575698,16.786 1.2575698,18.0296667 L1.2575698,19.7563333 L13.8305151,19.7563333 C14.2500983,19.7563333 14.4596933,19.964 14.4596933,20.3785556 C14.4596933,20.7927222 14.2500983,21 13.8305151,21 L0.629571372,21 C0.209988203,21 0,20.7927222 0,20.3781667 L0,18.0292778 C0,16.0953333 0.547384978,14.3340556 1.6417617,12.7450556 C2.73574518,11.1560556 4.1915061,10.0166111 6.00747149,9.32555556 C4.84349194,8.22033333 4.26150216,6.88488889 4.26150216,5.31922222 C4.26150216,3.89161111 4.77349587,2.64794444 5.79787652,1.589 C6.82304365,0.529666667 8.03342509,0 9.42980731,0 C10.8273692,0 12.0259536,0.529666667 13.0271333,1.589 C14.028313,2.64794444 14.5296893,3.89122222 14.5296893,5.31922222 C14.5296893,6.88488889 13.9705073,8.22033333 12.8529296,9.32555556" id="Fill-1" fill="#9FA0A4"></path>
                                <path d="M12.8529296,9.32555556 C14.668895,10.0166111 16.1474636,11.1677222 17.2882422,12.7796667 C18.4294141,14.3916111 19,16.1416111 19,18.0296667 L19,20.3785556 C19,20.7927222 18.790405,21 18.3708219,21 C17.9520252,21 17.7424302,20.7927222 17.7424302,20.3781667 L17.7424302,18.0292778 C17.7424302,16.8322778 17.4750295,15.6807778 16.9394416,14.5759444 C16.4034605,13.4703333 15.6464805,12.5265 14.668895,11.7432778 C13.6913095,10.9604444 12.5733386,10.4307778 11.316162,10.1546667 C11.316162,10.1083889 11.2925678,10.0854444 11.2465592,10.0854444 C11.1997641,10.0854444 11.1761699,10.0625 11.1761699,10.0166111 L11.106567,10.0166111 L11.0019662,9.91277778 C10.9779788,9.88944444 10.9669681,9.85522222 10.9669681,9.80933333 L10.8969721,9.80933333 L10.8969721,9.39477778 C10.8969721,9.3485 10.9091624,9.31427778 10.9315769,9.29094444 L10.9673614,9.25672222 L10.9673614,9.1875 L11.0369642,9.11827778 C11.0369642,9.07238889 11.0597719,9.04944444 11.106567,9.04944444 L11.1761699,8.98022222 C11.828549,8.65783333 12.3401494,8.1515 12.7133307,7.46044444 C13.0857255,6.76977778 13.2717263,6.05577778 13.2717263,5.31922222 C13.2717263,4.214 12.8879276,3.25811111 12.1199371,2.45233333 C11.35116,1.64655556 10.4545812,1.24327778 9.42980731,1.24327778 C8.73181282,1.24327778 8.07982698,1.42761111 7.47463626,1.79588889 C6.87416437,2.15911111 6.38065277,2.67127778 6.04246952,3.28144444 C5.69288242,3.90288889 5.51867873,4.58227778 5.51867873,5.31922222 C5.51867873,6.05577778 5.7164766,6.76977778 6.11207236,7.46044444 C6.50806134,8.1515 7.00904444,8.65822222 7.61423516,8.98022222 C7.84703107,9.07238889 7.96303578,9.25633333 7.96303578,9.53283333 C7.96303578,9.85561111 7.80062918,10.0625 7.47463626,10.1546667 C6.26346834,10.4307778 5.18088871,10.9491667 4.22650413,11.7090556 C3.28077074,12.4572778 2.52654345,13.4158889 2.0259536,14.5067222 C1.51395989,15.6119444 1.2575698,16.786 1.2575698,18.0296667 L1.2575698,19.7563333 L13.8305151,19.7563333 C14.2500983,19.7563333 14.4596933,19.964 14.4596933,20.3785556 C14.4596933,20.7927222 14.2500983,21 13.8305151,21 L0.629571372,21 C0.209988203,21 0,20.7927222 0,20.3781667 L0,18.0292778 C0,16.0953333 0.547384978,14.3340556 1.6417617,12.7450556 C2.73574518,11.1560556 4.1915061,10.0166111 6.00747149,9.32555556 C4.84349194,8.22033333 4.26150216,6.88488889 4.26150216,5.31922222 C4.26150216,3.89161111 4.77349587,2.64794444 5.79787652,1.589 C6.82304365,0.529666667 8.03342509,0 9.42980731,0 C10.8273692,0 12.0259536,0.529666667 13.0271333,1.589 C14.028313,2.64794444 14.5296893,3.89122222 14.5296893,5.31922222 C14.5296893,6.88488889 13.9705073,8.22033333 12.8529296,9.32555556 Z" id="Stroke-3" stroke="#3DCD58" fill="#3DCD58" stroke-linecap="round" stroke-linejoin="round"></path>
                            </g>
                        </g>
                    </g>
                </g>
            </g>
        </g>
    </g>
</svg>