<?xml version="1.0" encoding="UTF-8"?>
<svg width="215px" height="45px" viewBox="0 0 215 45" version="1.1" xmlns="http://www.w3.org/2000/svg" xmlns:xlink="http://www.w3.org/1999/xlink">
    <!-- Generator: Sketch 63.1 (92452) - https://sketch.com -->
    <title>SE_Logo/White</title>
    <desc>Created with Sketch.</desc>
    <defs>
        <path d="M8.34177249,27.7682549 L1.46973545,27.7682549 L1.46973545,15.7312884 C1.46973545,15.2887751 1.46973545,14.6202654 0.713633157,14.6202654 C0,14.6202654 0,15.2364471 0,15.7312884 L0,27.8186869 C0,28.8223995 0.137266314,28.9494277 1.22477954,28.9494277 L8.34177249,28.9494277 C8.82106702,28.9494277 9.41753086,28.9494277 9.41753086,28.349172 C9.41715168,27.7682549 8.82106702,27.7682549 8.34177249,27.7682549" id="path-1"></path>
        <polygon id="path-3" points="0 44.2647059 215 44.2647059 215 0 0 0"></polygon>
    </defs>
    <g id="Login-Desktop" stroke="none" stroke-width="1" fill="none" fill-rule="evenodd">
        <g id="Desktop-new-brand-SPECS" transform="translate(-448.000000, -208.000000)">
            <g id="Group-2-Copy" transform="translate(306.000000, 186.000000)">
                <g id="SE_Logo/White" transform="translate(142.000000, 22.000000)">
                    <mask id="mask-2" fill="white">
                        <use xlink:href="#path-1"></use>
                    </mask>
                    <use id="Mask" fill="#FFFFFF" xlink:href="#path-1"></use>
                    <path d="M11.4104709,18.5116517 C10.7393069,18.5116517 10.7393069,19.0732302 10.7393069,19.5244647 L10.7393069,28.1919603 C10.7393069,28.6344735 10.7393069,29.1854347 11.4104709,29.1854347 C12.0600212,29.1854347 12.0600212,28.6344735 12.0600212,28.1919603 L12.0600212,19.5244647 C12.0600212,19.1210079 12.0600212,18.5116517 11.4104709,18.5116517" id="Fill-3" fill="#FFFFFF"></path>
                    <path d="M11.4104709,15.0132187 C10.9387601,15.0132187 10.5690511,15.3541093 10.5690511,15.7897972 C10.5690511,16.2182804 10.9467231,16.5667549 11.4104709,16.5667549 C11.8666349,16.5667549 12.2518907,16.2110758 12.2518907,15.7897972 C12.2518907,15.3616931 11.8742187,15.0132187 11.4104709,15.0132187" id="Fill-5" fill="#FFFFFF"></path>
                    <path d="M16.6789189,16.4420397 C16.6720935,16.4564489 16.6656473,16.4712372 16.6595802,16.4860256 C16.6660265,16.4712372 16.6720935,16.4564489 16.6789189,16.4420397 M17.910903,18.7475071 L16.4938748,18.7475071 L16.4938748,17.8541384 C16.4938748,16.5781684 16.6133192,15.7420573 18.2093245,15.7420573 C18.2703739,15.7420573 18.4478342,15.7598792 18.6359118,15.7792178 C18.8383986,15.799694 19.0477108,15.8205494 19.1258236,15.8205494 C19.4614056,15.8205494 19.6692011,15.5498086 19.6692011,15.2991649 C19.6692011,15.2870309 19.6657884,14.9961931 19.3647125,14.8574101 C19.1224109,14.7451702 18.4220494,14.6204171 17.8047302,14.6204171 C17.3436367,14.6204171 16.868134,14.7273483 16.466194,14.9211138 C16.0342981,15.1289092 15.6983369,15.4280891 15.4947125,15.7849056 C15.3566878,16.0177275 15.1735397,16.4674453 15.1735397,17.6770573 L15.1735397,18.7475071 L14.0545538,18.7475071 C13.8463792,18.7475071 13.213134,18.7475071 13.213134,19.1900203 C13.213134,19.6530097 13.8027725,19.6530097 14.0545538,19.6530097 L15.1735397,19.6530097 L15.1735397,28.1919603 C15.1735397,28.6344735 15.1735397,29.1854347 15.8447037,29.1854347 C16.494254,29.1854347 16.494254,28.6344735 16.494254,28.1919603 L16.494254,19.6530097 L17.9112822,19.6530097 C18.4698272,19.6530097 18.7527019,19.4971631 18.7527019,19.1900203 C18.7527019,18.7475071 18.2051534,18.7475071 17.910903,18.7475071" id="Fill-7" fill="#FFFFFF"></path>
                    <path d="M20.156269,22.9932072 C20.3193201,21.6956235 21.2559162,19.5152884 23.7456693,19.5152884 C26.833403,19.5152884 27.0988351,22.1305529 27.1860485,22.9932072 L20.156269,22.9932072 Z M28.5716041,23.1407116 C28.5716041,23.0910379 28.5647787,21.911761 27.9497346,20.7601649 C27.5997434,20.1045476 27.120828,19.5831631 26.5262601,19.2104206 C26.4610397,19.1690891 26.3863395,19.1398915 26.3180855,19.1023519 C26.2706869,19.076567 26.2217716,19.0515406 26.1724771,19.0268933 C26.0268686,18.9544683 25.8763307,18.8892478 25.7189674,18.8323695 C25.6715688,18.815306 25.6218951,18.7993801 25.5729797,18.7834541 C25.3993113,18.7273342 25.2195758,18.6791772 25.033015,18.6412584 C24.9947169,18.6332954 24.9552813,18.6268492 24.9166041,18.6200238 C24.7008457,18.5809674 24.4767451,18.5532866 24.2446817,18.5377399 C24.2230679,18.5366023 24.2014541,18.5354647 24.1798404,18.533948 C24.0497787,18.5267434 23.9242672,18.511955 23.789276,18.511955 C22.2220891,18.511955 20.9298139,19.0185511 20.0527504,19.9771402 C19.2003342,20.9080485 18.7502372,22.2469638 18.7502372,23.8490362 C18.7502372,25.4048474 19.1756869,26.7175988 19.9807046,27.6469903 C20.4061543,28.1376605 20.9351226,28.5172284 21.5524418,28.7758351 C22.2027504,29.0480926 22.9558192,29.1861173 23.7896552,29.1861173 C25.7189674,29.1861173 26.8459162,28.4186393 27.4518598,27.7747769 C28.1427416,27.0402884 28.3603959,26.2637099 28.3603959,26.1093801 C28.3603959,25.8447063 28.0934471,25.54856 27.7108457,25.54856 C27.4408633,25.54856 27.1943907,25.7207116 27.0832884,25.9872813 C26.7003078,26.8783748 26.1190115,27.509724 25.3541878,27.8638862 C24.8980238,28.0747152 24.386119,28.1816464 23.8325035,28.1816464 C22.6566393,28.1816464 21.7317981,27.783119 21.0837646,26.9966817 C20.4865423,26.272052 20.1589233,25.2349709 20.1354136,23.9969198 L27.3479621,23.9969198 C28.0039586,23.9965406 28.5716041,23.9965406 28.5716041,23.1407116 L28.5716041,23.1407116 Z" id="Fill-9" fill="#FFFFFF"></path>
                    <path d="M35.3304533,14.6203413 C34.5955855,14.6203413 34.5955855,15.288851 34.5955855,15.7313642 L34.5955855,28.074336 C34.5955855,28.5430132 34.5955855,29.1857381 35.352067,29.1857381 C36.065321,29.1857381 36.065321,28.5691772 36.065321,28.074336 L36.065321,15.7313642 C36.065321,15.2361437 36.065321,14.6203413 35.3304533,14.6203413" id="Fill-11" fill="#FFFFFF"></path>
                    <path d="M59.3548642,22.1026446 C59.8337795,22.1026446 60.0976949,21.6878122 60.0976949,21.3533677 L60.0976949,12.8561279 L58.582836,12.8561279 L58.582836,21.3533677 C58.582836,21.7010838 58.8611605,22.1026446 59.3548642,22.1026446" id="Fill-13" fill="#FFFFFF"></path>
                    <path d="M45.408948,23.8826702 C45.3194594,23.8322381 45.2170785,23.7943192 45.1219021,23.7488166 C45.0896711,23.733649 45.05744,23.7181023 45.0240714,23.7033139 C44.3020961,23.3828995 43.4500591,23.1902716 42.6131896,23.0109153 C41.8032425,22.8376261 41.0380397,22.6738166 40.470015,22.3996631 C39.8348739,22.0928995 39.5387275,21.6917178 39.5387275,21.1362063 C39.5387275,20.0168413 40.8711966,19.5151746 42.1915317,19.5151746 C43.5607822,19.5151746 44.6099974,20.0547601 44.930791,20.9234815 C45.1226605,21.4539665 45.2728192,21.5396631 45.5587275,21.5396631 C46.1589832,21.5396631 46.1661878,21.0232081 46.1661878,21.0178995 C46.1661878,20.8855626 46.060015,20.2724145 45.5401473,19.6964268 C45.2265582,19.3494691 44.818172,19.0737989 44.3256058,18.877 C43.7173871,18.6343192 42.9783483,18.5110829 42.1282072,18.5110829 C40.6489921,18.5110829 39.5584453,18.9130229 38.8869021,19.7040106 C38.2707205,20.430157 38.239627,21.2203862 38.239627,21.3716825 C38.239627,22.1190635 38.6237451,22.8198042 39.2668492,23.2475291 C39.9224665,23.6817002 40.6008351,23.8462681 41.9526429,24.1750247 C42.3193183,24.2645132 42.73453,24.3653774 43.2123078,24.4874762 L43.2688069,24.5015062 C44.0055705,24.6854127 45.3774753,25.0289577 45.3774753,26.2651129 C45.3774753,27.2187725 44.4518757,28.1803951 42.3837804,28.1803951 C40.8821931,28.1803951 39.8606587,27.6074409 39.3464788,26.4774586 L39.3324489,26.4463651 C39.1894947,26.1251922 39.0545035,25.8222205 38.6760732,25.8222205 C38.5213642,25.8222205 38.3617257,25.8779612 38.2381102,25.9742751 C38.1016023,26.0812063 38.0261437,26.2264356 38.0261437,26.3830406 C38.0261437,26.9635785 38.5118845,27.7773175 39.1807734,28.3172822 C39.5102884,28.5849894 39.8606587,28.7742046 40.2838333,28.913746 C40.8374489,29.0953774 41.4964788,29.1844868 42.2980838,29.1844868 C44.0006411,29.1844868 45.246276,28.7707919 46.0004824,27.9547778 C46.6686129,27.2320441 46.7410379,26.4084462 46.7410379,26.0880317 C46.7406587,25.1074497 46.3049709,24.3862328 45.408948,23.8826702" id="Fill-15" fill="#FFFFFF"></path>
                    <path d="M76.4311349,19.5957143 C75.9514612,19.1012522 75.0501296,18.5116138 73.4833219,18.5116138 C71.4205353,18.5116138 70.5593977,19.4940917 69.9352531,20.2236508 L69.9352531,19.4641358 C69.9356323,19.1714021 69.9360115,18.8388536 69.7464171,18.6492593 C69.7263201,18.6291623 69.6963642,18.6208201 69.6732337,18.604515 C69.6652707,18.5988272 69.6569286,18.5942769 69.6485864,18.5893474 C69.5522725,18.5309524 69.4385159,18.4922751 69.2857028,18.4922751 C68.6145388,18.4922751 68.6145388,19.0777425 68.6145388,19.5050882 L68.6145388,28.1725838 C68.6145388,28.647328 68.6145388,29.185776 69.2857028,29.185776 C69.4385159,29.185776 69.5522725,29.1467196 69.6485864,29.0887037 C69.6569286,29.0833951 69.6656499,29.0788448 69.6736129,29.0735362 C69.6967434,29.057231 69.7266993,29.0488889 69.7467963,29.0287919 C69.9363907,28.8391975 69.9360115,28.5070282 69.9356323,28.2139153 L69.9356323,24.5172046 C69.9356323,22.8665961 69.9909938,22.0213845 70.3182337,21.3771429 C70.5942831,20.8402116 71.040209,20.3836684 71.6082337,20.0575661 C72.1500944,19.7462522 72.7784101,19.5748589 73.377149,19.5748589 C74.265209,19.5748589 75.0584718,19.9335714 75.4998474,20.5342063 C75.890791,21.0552116 75.9446358,21.8401323 75.9446358,22.6114021 L75.9446358,28.2142945 C75.9442566,28.5074074 75.9438774,28.8395767 76.1334718,29.0291711 C76.1535688,29.0496473 76.1831455,29.0576102 76.2066552,29.0739153 C76.2146182,29.079224 76.2229603,29.0837743 76.2316817,29.0890829 C76.3279956,29.1470988 76.4417522,29.1861552 76.5945653,29.1861552 C77.2661085,29.1861552 77.2661085,28.6245767 77.2661085,28.172963 L77.2661085,22.2962963 C77.2657293,21.7483686 77.2657293,20.4659524 76.4311349,19.5957143" id="Fill-17" fill="#FFFFFF"></path>
                    <path d="M61.4574656,14.4342354 L61.4574656,15.8910785 C63.8892028,16.7324982 65.6433298,19.0398616 65.6433298,21.7540944 C65.6433298,25.1774101 62.8581887,27.9625511 59.4352522,27.9625511 C56.0123157,27.9625511 53.2271746,25.1774101 53.2271746,21.7540944 C53.2271746,19.0921896 54.9145644,16.8231243 57.2731182,15.942269 L57.2731182,14.4702584 C54.1322981,15.4042002 51.8336561,18.3140944 51.8336561,21.7540944 C51.8336561,25.9456464 55.2437002,29.3556905 59.4352522,29.3556905 C63.6268042,29.3556905 67.0368483,25.9456464 67.0368483,21.7540944 C67.0368483,18.2636623 64.669194,15.3230538 61.4574656,14.4342354" id="Fill-19" fill="#FFFFFF"></path>
                    <path d="M116.760888,16.0298616 C114.227528,14.9051878 112.716082,14.4687416 111.216391,14.4687416 C109.642378,14.4687416 108.633357,15.0325952 108.633357,15.9039709 C108.633357,18.5336446 117.554151,17.7927099 117.554151,23.8760344 C117.554151,27.2295794 114.739812,29.1774718 110.830377,29.1774718 C107.76274,29.1774718 106.253948,28.384209 104.51423,27.4855317 L104.51423,23.7243589 C107.022943,25.3867222 108.557899,25.9740855 110.493278,25.9740855 C112.171946,25.9740855 113.07669,25.3867222 113.07669,24.3636711 C113.07669,21.5000379 104.155897,22.5484947 104.155897,16.2858139 C104.155897,13.2651966 106.766611,11.2664929 110.830756,11.2664929 C112.79192,11.2664929 114.561593,11.6775335 116.761267,12.6236093 L116.761267,16.0298616" id="Fill-21" fill="#FFFFFF"></path>
                    <path d="M129.250416,28.3785212 C127.763996,28.9181067 126.506607,29.1755758 125.251113,29.1755758 C121.097101,29.1755758 118.410928,26.7555935 118.410928,23.0740503 C118.410928,19.4603818 121.200619,16.906925 125.097541,16.906925 C126.301086,16.906925 127.839076,17.2155847 129.069922,17.6736446 L129.069922,20.4398263 C128.096545,19.9222337 126.9677,19.6386005 126.045134,19.6386005 C123.815504,19.6386005 122.380654,20.9790326 122.380654,23.0459903 C122.380654,25.1436623 123.791616,26.5246675 125.915831,26.5246675 C126.812233,26.5246675 127.609667,26.3183889 129.250416,25.7044824 L129.250416,28.3785212" id="Fill-23" fill="#FFFFFF"></path>
                    <path d="M161.641399,21.7184506 C161.793453,20.0758051 162.747113,19.1266958 164.207369,19.1266958 C165.644494,19.1266958 166.617113,20.1031067 166.770684,21.7184506 L161.641399,21.7184506 Z M163.951795,16.9103377 C160.306275,16.9103377 157.710728,19.4857875 157.710728,23.1085564 C157.710728,26.7582478 160.410173,29.1755758 164.569115,29.1755758 C165.489785,29.1755758 167.718656,29.1755758 169.841734,27.6034594 L169.841734,25.2942002 C168.102016,26.5326305 166.951937,26.959597 165.467413,26.959597 C163.124406,26.959597 161.691831,25.7465723 161.562527,23.6777187 L170.049908,23.6777187 C170.226989,19.3580009 167.390658,16.9103377 163.951795,16.9103377 L163.951795,16.9103377 Z" id="Fill-25" fill="#FFFFFF"></path>
                    <mask id="mask-4" fill="white">
                        <use xlink:href="#path-3"></use>
                    </mask>
                    <g id="Clip-28"></g>
                    <polygon id="Fill-27" fill="#FFFFFF" points="171.486199 28.9597795 175.198078 28.9597795 175.198078 17.1283333 171.486199 17.1283333"></polygon>
                    <path d="M185.525851,25.7260203 C184.753444,26.4210732 184.111098,26.7005353 183.317456,26.7005353 C181.570154,26.7005353 180.46444,25.2626517 180.46444,23.1069638 C180.46444,20.7449974 181.570154,19.3833307 183.441071,19.3833307 C184.111477,19.3833307 184.984749,19.6912319 185.52623,20.0780044 L185.52623,25.7260203 L185.525851,25.7260203 Z M185.525851,11.4836922 L185.525851,17.6481631 C184.523276,17.1624224 183.524872,16.9072284 182.443047,16.9072284 C179.058408,16.9072284 176.71616,19.4087363 176.71616,23.0296093 C176.71616,26.5719903 179.058787,29.1781543 182.234493,29.1781543 C183.493779,29.1781543 184.467535,28.847881 185.525851,28.0030485 L185.525851,28.9563289 L189.236971,28.9563289 L189.236971,11.4833131 L185.525851,11.4833131 L185.525851,11.4836922 Z" id="Fill-29" fill="#FFFFFF"></path>
                    <path d="M194.730809,21.7184506 C194.884759,20.0758051 195.832731,19.1266958 197.292228,19.1266958 C198.730112,19.1266958 199.712969,20.1031067 199.866541,21.7184506 L194.730809,21.7184506 Z M197.038172,16.9103377 C193.394168,16.9103377 190.802793,19.4857875 190.802793,23.1085564 C190.802793,26.7582478 193.501858,29.1755758 197.65625,29.1755758 C198.57692,29.1755758 200.808445,29.1755758 202.936832,27.6034594 L202.936832,25.2942002 C201.196355,26.5326305 200.044001,26.959597 198.552652,26.959597 C196.221779,26.959597 194.783137,25.7465723 194.653833,23.6777187 L203.13856,23.6777187 C203.314504,19.3580009 200.475518,16.9103377 197.038172,16.9103377 L197.038172,16.9103377 Z" id="Fill-30" fill="#FFFFFF"></path>
                    <path d="M208.69413,20.5168016 L208.748733,20.5168016 C209.850276,18.0539709 211.083398,16.8997205 212.515214,16.8997205 C213.256907,16.8997205 213.896978,17.182216 214.972736,17.9792707 L213.95196,21.2588739 C212.976687,20.644209 212.336237,20.3874982 211.748116,20.3874982 C210.386449,20.3874982 209.515073,21.671052 208.694509,23.8400115 L208.694509,28.9442707 L204.977701,28.9442707 L204.977701,17.1169956 L208.694509,17.1169956 L208.694509,20.5168016" id="Fill-31" fill="#FFFFFF"></path>
                    <path d="M175.371443,12.1518986 C175.720296,13.0714312 175.093118,14.3530891 173.974132,15.012119 C172.852113,15.6715282 171.666011,15.4625952 171.319432,14.5434418 C170.968303,13.6223924 171.592448,12.3392178 172.714088,11.6832213 C173.833074,11.0207787 175.019556,11.2312284 175.371443,12.1518986" id="Fill-32" fill="#FFFFFF"></path>
                    <path d="M142.618297,21.4298122 C142.618297,18.2237716 140.439858,16.9106411 138.2891,16.9106411 C136.827327,16.9106411 135.62492,17.5279603 134.549541,18.8892478 L134.49835,18.8892478 L134.49835,11.4833131 L130.784197,11.4833131 L130.784197,28.9259938 L134.49835,28.9259938 L134.49835,21.4298122 C135.367451,20.1724224 136.11066,19.6347328 136.980519,19.6347328 C138.135528,19.6347328 138.903765,20.4560556 138.903765,22.2234541 L138.903765,26.3797416 C140.14902,25.7396711 141.416269,25.3464524 142.618297,25.2004647 L142.618297,21.4298122" id="Fill-33" fill="#FFFFFF"></path>
                    <path d="M151.936556,16.9073042 C150.423593,16.9073042 149.268585,17.4692619 148.085895,18.8214489 L148.085895,17.1287504 L144.3725,17.1287504 L144.3725,25.1686887 C145.659087,25.2972337 147.300595,25.8868721 148.085895,26.8613871 L148.085895,21.3369868 C149.062306,19.8714224 149.754705,19.3834065 150.678787,19.3834065 C151.729899,19.3834065 152.529608,20.0780802 152.529608,21.745373 L152.529608,28.9291032 L156.243761,28.9291032 L156.243761,21.4393677 C156.243761,17.9550026 153.782826,16.9073042 151.936556,16.9073042" id="Fill-34" fill="#FFFFFF"></path>
                    <polygon id="Fill-35" fill="#FFFFFF" points="158.295741 32.326672 153.979815 32.326672 153.979815 35.3931711 158.144444 35.3931711 158.144444 36.7093351 153.979815 36.7093351 153.979815 39.8721481 158.425044 39.8721481 158.425044 41.1871746 152.53321 41.1871746 152.53321 31.0139206 158.295741 31.0139206"></polygon>
                    <polygon id="Fill-36" fill="#FFFFFF" points="161.820679 41.1927866 163.142531 41.1927866 163.142531 31.0100529 161.820679 31.0100529"></polygon>
                    <path d="M169.687328,35.4894092 C170.625441,35.4894092 171.2056,36.1355467 171.249206,37.1494974 L167.88239,37.1494974 C168.0644,36.0900441 168.674894,35.4894092 169.687328,35.4894092 M167.858122,38.0318695 L172.568025,38.0318695 C172.568025,35.5500794 171.43425,34.3522222 169.657372,34.3522222 C167.814515,34.3522222 166.535132,35.7146473 166.535132,37.7459612 C166.535132,39.6028483 167.691279,41.3186772 169.772266,41.3186772 C170.90642,41.3186772 171.640529,41.0661376 172.452372,40.526552 L172.452372,39.2395855 C171.667072,39.7537654 170.90642,40.0499118 170.105194,40.0499118 C168.825432,40.050291 168.0644,39.3632011 167.858122,38.0318695" id="Fill-37" fill="#FFFFFF"></path>
                    <path d="M181.200749,36.2414921 C180.440096,35.720866 179.931983,35.5680529 179.35372,35.5680529 C178.14335,35.5680529 177.305343,36.4966861 177.305343,37.8564568 C177.305343,39.2397372 178.197195,40.0747108 179.575167,40.0747108 C180.141295,40.0747108 180.681639,39.9283439 181.348632,39.6295432 L181.348632,40.933194 C180.903086,41.1436437 180.054461,41.3180705 179.35372,41.3180705 C177.352362,41.3180705 175.962636,39.9416155 175.962636,37.9736261 C175.962636,35.7542346 177.23178,34.3527531 179.263474,34.3527531 C180.039294,34.3527531 180.561057,34.5328677 181.200749,34.8138466 L181.200749,36.2414921" id="Fill-38" fill="#FFFFFF"></path>
                    <path d="M187.223668,34.4799709 L189.345229,34.4799709 L189.345229,35.6713818 L187.223668,35.6713818 L187.223668,39.1144153 C187.223668,39.9027487 187.793968,40.1302619 188.179603,40.1302619 C188.65776,40.1302619 189.151085,39.9626605 189.687257,39.6323871 L189.687257,40.8727134 C189.222372,41.1279074 188.510256,41.3182601 188.073051,41.3182601 C186.633651,41.3182601 185.906367,40.4248915 185.906367,39.2145212 L185.906367,35.6713818 L184.739603,35.6713818 L184.739603,35.5234982 L187.223668,33.0932778 L187.223668,34.4799709" id="Fill-39" fill="#FFFFFF"></path>
                    <path d="M194.400877,34.4799709 L194.400877,36.0323695 L194.42742,36.0323695 C195.101996,34.8439921 195.742825,34.3514259 196.36697,34.3514259 C196.90466,34.3514259 197.409739,34.6039656 197.963354,35.1283836 L197.262614,36.2932513 C196.859915,35.8954824 196.33891,35.6205705 196.024183,35.6205705 C195.115268,35.6205705 194.400497,36.545791 194.400497,37.693216 L194.400497,41.1927487 L193.080162,41.1927487 L193.080162,34.4799709 L194.400877,34.4799709" id="Fill-40" fill="#FFFFFF"></path>
                    <path d="M211.509151,36.2414921 C210.745086,35.720866 210.23811,35.5680529 209.655297,35.5680529 C208.44796,35.5680529 207.617158,36.4966861 207.617158,37.8564568 C207.617158,39.2397372 208.510147,40.0747108 209.879398,40.0747108 C210.447043,40.0747108 210.983216,39.9283439 211.65931,39.6295432 L211.65931,40.933194 C211.204662,41.1436437 210.354142,41.3180705 209.655297,41.3180705 C207.656973,41.3180705 206.261558,39.9416155 206.261558,37.9736261 C206.261558,35.7542346 207.536391,34.3527531 209.568463,34.3527531 C210.3458,34.3527531 210.861876,34.5328677 211.509151,34.8138466 L211.509151,36.2414921" id="Fill-41" fill="#FFFFFF"></path>
                    <polygon id="Fill-42" fill="#FFFFFF" points="201.466755 41.1924074 202.788607 41.1924074 202.788607 34.4792504 201.466755 34.4792504"></polygon>
                    <path d="M202.833389,32.068179 C202.962692,32.3927646 202.736696,32.8504453 202.340064,33.0844048 C201.938883,33.3183642 201.515329,33.2429056 201.394747,32.9179409 C201.274165,32.5910802 201.492957,32.136433 201.894518,31.9020944 C202.291528,31.6654806 202.712807,31.7416975 202.833389,32.068179" id="Fill-43" fill="#FFFFFF"></path>
                    <path d="M143.662166,32.6114048 C143.428965,32.6114048 143.330755,32.6493236 143.235199,32.7558757 C143.198039,32.7975864 143.18325,32.8396764 143.1696,32.9234771 L141.984256,37.4191384 C141.705931,38.9954259 139.769035,40.570955 137.244397,40.570955 L135.8687,40.570955 L133.734626,40.570955 L134.343603,38.2597998 L136.598259,38.2597998 C136.828427,38.2597998 137.008162,38.1748616 137.159079,38.006881 C137.213683,37.9420397 137.286487,37.8396587 137.295587,37.7346235 L138.231804,33.8066076 C138.507854,32.2288034 140.174388,30.4864312 142.698268,30.4864312 L146.292219,30.4864312 L145.832263,32.6114048 L143.662166,32.6114048 Z M144.472492,35.350664 L144.873295,33.8960961 L148.525261,33.8960961 C148.975737,31.7870485 148.620817,29.8330891 147.340675,28.552948 C144.750437,25.9634683 139.330693,26.8431861 135.293092,30.7063607 C134.66288,31.305858 134.13012,31.9542707 133.644379,32.6170926 L135.843295,32.6170926 L135.332148,34.0750732 L132.705508,34.0750732 C132.454485,34.5346499 132.219388,34.9896764 132.038894,35.4534242 L135.153171,35.4534242 L134.655296,36.9114048 L131.594485,36.9114048 C131.071205,39.1376217 131.404891,41.2151966 132.721055,42.5336358 C135.280578,45.0912637 140.683259,44.1922072 144.718586,40.329791 C145.424635,39.6582478 146.007827,38.933239 146.53452,38.1888915 L143.710702,38.1888915 L144.141081,36.7343236 L147.443436,36.7343236 C147.684979,36.270955 147.907942,35.8140326 148.08161,35.3510432 L144.472492,35.3510432 L144.472492,35.350664 Z" id="Fill-44" fill="#FFFFFF"></path>
                    <polygon id="Fill-45" fill="#FFFFFF" points="90.3621869 45 91.3621869 45 91.3621869 0 90.3621869 0"></polygon>
                </g>
            </g>
        </g>
    </g>
</svg>